<svg xmlns="http://www.w3.org/2000/svg" enable-background="new 0 0 160 160" viewBox="0 0 160 160" id="Mathematics"><linearGradient id="a" x1="39.25" x2="123.014" y1="35.25" y2="119.014" gradientUnits="userSpaceOnUse"><stop offset="0" stop-color="#f56701" class="stopColor3333ff svgShape"></stop><stop offset="1" stop-color="#4285f4" class="stopColor83acff svgShape"></stop></linearGradient><path fill="url(#a)" d="M131,64h-8.667c-0.933-3.304-2.244-6.473-3.91-9.453l6.124-6.124
		c0.944-0.944,1.465-2.2,1.465-3.535c0-1.336-0.521-2.592-1.465-3.536l-9.899-9.899c-0.944-0.944-2.2-1.464-3.536-1.464
		s-2.591,0.52-3.536,1.464l-6.124,6.124c-2.98-1.666-6.149-2.977-9.453-3.91V25c0-2.757-2.243-5-5-5H73c-2.757,0-5,2.243-5,5v8.667
		c-3.304,0.933-6.473,2.244-9.453,3.91l-6.124-6.124c-0.944-0.944-2.2-1.464-3.536-1.464s-2.591,0.52-3.535,1.464l-9.899,9.899
		c-0.944,0.944-1.465,2.2-1.465,3.536c0,1.335,0.521,2.591,1.465,3.535l6.124,6.124c-1.666,2.98-2.977,6.149-3.91,9.453H29
		c-2.757,0-5,2.243-5,5v14c0,2.757,2.243,5,5,5h8.667c0.933,3.305,2.244,6.473,3.91,9.453l-6.124,6.124
		c-0.945,0.944-1.465,2.2-1.465,3.536s0.52,2.591,1.465,3.536l9.899,9.899c0.944,0.944,2.2,1.464,3.536,1.464
		s2.591-0.52,3.536-1.464l3.562-3.562c0.781-0.781,0.781-2.048,0-2.829c-0.781-0.781-2.047-0.781-2.829,0l-3.562,3.562
		c-0.255,0.255-0.553,0.293-0.708,0.293s-0.452-0.038-0.707-0.293l-9.899-9.899c-0.255-0.255-0.293-0.552-0.293-0.707
		s0.038-0.452,0.293-0.707l7.213-7.213c0.652-0.652,0.774-1.665,0.295-2.453c-2.106-3.467-3.667-7.24-4.639-11.214
		C40.932,84.63,40.129,84,39.208,84H29c-0.551,0-1-0.448-1-1V69c0-0.552,0.449-1,1-1h10.208c0.922,0,1.724-0.63,1.943-1.525
		c0.971-3.973,2.532-7.745,4.639-11.214c0.479-0.788,0.356-1.801-0.295-2.453l-7.213-7.214c-0.255-0.254-0.293-0.552-0.293-0.706
		c0-0.155,0.038-0.452,0.293-0.707l9.9-9.9c0.254-0.254,0.552-0.292,0.707-0.292s0.453,0.038,0.708,0.293l7.213,7.213
		c0.652,0.652,1.666,0.774,2.453,0.295c3.468-2.107,7.241-3.668,11.214-4.639C71.37,36.932,72,36.129,72,35.208V25
		c0-0.552,0.449-1,1-1h14c0.551,0,1,0.448,1,1v10.208c0,0.921,0.63,1.724,1.525,1.942c3.973,0.971,7.746,2.531,11.214,4.639
		c0.789,0.479,1.802,0.357,2.453-0.295l7.213-7.213c0.255-0.255,0.553-0.293,0.708-0.293s0.452,0.038,0.707,0.293l9.899,9.9
		c0.255,0.255,0.293,0.552,0.293,0.707c0,0.154-0.038,0.452-0.293,0.707l-7.213,7.213c-0.652,0.652-0.774,1.665-0.295,2.453
		c2.107,3.469,3.668,7.241,4.639,11.214c0.219,0.896,1.021,1.525,1.943,1.525H131c0.551,0,1,0.448,1,1v14c0,0.552-0.449,1-1,1
		h-10.208c-0.922,0-1.724,0.63-1.943,1.525c-0.971,3.974-2.532,7.747-4.639,11.214c-0.479,0.788-0.357,1.801,0.295,2.453
		l7.213,7.213c0.255,0.255,0.293,0.552,0.293,0.707s-0.038,0.452-0.293,0.707l-9.9,9.9c-0.254,0.254-0.552,0.292-0.707,0.292
		s-0.453-0.038-0.707-0.292l-3.562-3.562c-0.781-0.781-2.047-0.781-2.829,0s-0.781,2.047,0,2.829l3.562,3.562
		c0.944,0.944,2.2,1.464,3.536,1.464s2.591-0.52,3.535-1.464l9.899-9.899c0.945-0.944,1.465-2.2,1.465-3.536
		s-0.52-2.591-1.465-3.536l-6.124-6.124c1.666-2.98,2.977-6.148,3.91-9.453H131c2.757,0,5-2.243,5-5V69
		C136,66.243,133.757,64,131,64z"></path><linearGradient id="b" x1="32.232" x2="115.996" y1="42.268" y2="126.033" gradientUnits="userSpaceOnUse"><stop offset="0" stop-color="#f56701" class="stopColor3333ff svgShape"></stop><stop offset="1" stop-color="#4285f4" class="stopColor83acff svgShape"></stop></linearGradient><path fill="url(#b)" d="M113.82,73.832
		c-1.47-16.396-14.975-29.614-31.414-30.749c-9.532-0.655-18.618,2.555-25.573,9.046C49.974,58.531,46.04,67.582,46.04,76.96
		c0,12.601,7.009,24.339,17.96,30.258V111c-2.757,0-5,2.243-5,5v12c0,2.757,2.243,5,5,5h4v2c0,2.757,2.243,5,5,5h14
		c2.757,0,5-2.243,5-5v-2h3c2.757,0,5-2.243,5-5v-12c0-2.415-1.721-4.435-4-4.899v-3.883
		C107.922,100.776,115.047,87.522,113.82,73.832z M66.884,104.206C56.651,99.166,50.04,88.472,50.04,76.96
		c0-8.274,3.471-16.259,9.522-21.907c6.135-5.727,14.15-8.562,22.568-7.979c14.498,1,26.409,12.658,27.705,27.115
		c1.119,12.478-5.601,24.541-16.719,30.017C92.433,104.542,92,105.238,92,106v5H68v-5C68,105.238,67.567,104.542,66.884,104.206z
		 M96,128c0,0.552-0.449,1-1,1h-5c-1.104,0-2,0.896-2,2v4c0,0.552-0.449,1-1,1H73c-0.551,0-1-0.448-1-1v-2h7c1.104,0,2-0.896,2-2
		s-0.896-2-2-2H64c-0.551,0-1-0.448-1-1v-12c0-0.552,0.449-1,1-1h31c0.551,0,1,0.448,1,1V128z"></path><linearGradient id="c" x1="30.75" x2="114.514" y1="43.75" y2="127.514" gradientUnits="userSpaceOnUse"><stop offset="0" stop-color="#f56701" class="stopColor3333ff svgShape"></stop><stop offset="1" stop-color="#4285f4" class="stopColor83acff svgShape"></stop></linearGradient><path fill="url(#c)" d="M70.5,85.5
		c0.512,0,1.024-0.195,1.414-0.586c0.781-0.781,0.781-2.047,0-2.828L66.828,77l5.086-5.086c0.781-0.781,0.781-2.047,0-2.828
		c-0.78-0.781-2.048-0.781-2.828,0L64,74.172l-5.086-5.086c-0.78-0.781-2.048-0.781-2.828,0c-0.781,0.781-0.781,2.047,0,2.828
		L61.172,77l-5.086,5.086c-0.781,0.781-0.781,2.047,0,2.828c0.39,0.391,0.902,0.586,1.414,0.586s1.024-0.195,1.414-0.586L64,79.828
		l5.086,5.086C69.476,85.305,69.988,85.5,70.5,85.5z"></path><linearGradient id="d" x1="41.25" x2="125.014" y1="33.25" y2="117.014" gradientUnits="userSpaceOnUse"><stop offset="0" stop-color="#f56701" class="stopColor3333ff svgShape"></stop><stop offset="1" stop-color="#4285f4" class="stopColor83acff svgShape"></stop></linearGradient><path fill="url(#d)" d="M77,75h8c1.104,0,2-0.896,2-2
		s-0.896-2-2-2h-8c-1.104,0-2,0.896-2,2S75.896,75,77,75z"></path><linearGradient id="e" x1="37.25" x2="121.014" y1="37.25" y2="121.014" gradientUnits="userSpaceOnUse"><stop offset="0" stop-color="#f56701" class="stopColor3333ff svgShape"></stop><stop offset="1" stop-color="#4285f4" class="stopColor83acff svgShape"></stop></linearGradient><path fill="url(#e)" d="M77,83h8c1.104,0,2-0.896,2-2
		s-0.896-2-2-2h-8c-1.104,0-2,0.896-2,2S75.896,83,77,83z"></path><linearGradient id="f" x1="48.507" x2="132.271" y1="25.993" y2="109.758" gradientUnits="userSpaceOnUse"><stop offset="0" stop-color="#f56701" class="stopColor3333ff svgShape"></stop><stop offset="1" stop-color="#4285f4" class="stopColor83acff svgShape"></stop></linearGradient><path fill="url(#f)" d="M92,76c1.104,0,2-0.896,2-2
		c0-1.654,1.346-3,3-3c0.773,0,1.519,0.32,2.1,0.9C99.68,72.481,100,73.228,100,74c0,1.24-0.745,2.335-1.897,2.791
		C96.218,77.537,95,79.351,95,81.41V82c0,1.104,0.896,2,2,2s2-0.896,2-2v-0.59c0-0.402,0.231-0.764,0.574-0.899
		C102.263,79.447,104,76.892,104,74c0-1.842-0.736-3.592-2.072-4.928C100.591,67.736,98.841,67,97,67c-3.86,0-7,3.141-7,7
		C90,75.104,90.896,76,92,76z"></path><linearGradient id="g" x1="41.75" x2="125.514" y1="32.75" y2="116.514" gradientUnits="userSpaceOnUse"><stop offset="0" stop-color="#f56701" class="stopColor3333ff svgShape"></stop><stop offset="1" stop-color="#4285f4" class="stopColor83acff svgShape"></stop></linearGradient><circle cx="97" cy="88" r="2" fill="url(#g)"></circle></svg>
